# Tiled2Unity generated file. Do not modify by hand.
# Wavefront file for 'MapaT1_mesh_0006.obj'

# Vertices (Count = 48)
v -22.4 -1.6 0
v -24 -1.6 0
v -24 0 0
v -22.4 0 0
v -24 -1.6 0
v -25.6 -1.6 0
v -25.6 0 0
v -24 0 0
v -22.4 -3.2 0
v -24 -3.2 0
v -24 -1.6 0
v -22.4 -1.6 0
v -24 -3.2 0
v -25.6 -3.2 0
v -25.6 -1.6 0
v -24 -1.6 0
v -22.4 -4.8 0
v -24 -4.8 0
v -24 -3.2 0
v -22.4 -3.2 0
v -24 -4.8 0
v -25.6 -4.8 0
v -25.6 -3.2 0
v -24 -3.2 0
v -22.4 -6.4 0
v -24 -6.4 0
v -24 -4.8 0
v -22.4 -4.8 0
v -24 -6.4 0
v -25.6 -6.4 0
v -25.6 -4.8 0
v -24 -4.8 0
v -22.4 -8 0
v -24 -8 0
v -24 -6.4 0
v -22.4 -6.4 0
v -24 -8 0
v -25.6 -8 0
v -25.6 -6.4 0
v -24 -6.4 0
v -24 -9.6 0
v -25.6 -9.6 0
v -25.6 -8 0
v -24 -8 0
v -24 -11.2 0
v -25.6 -11.2 0
v -25.6 -9.6 0
v -24 -9.6 0

# Texture cooridinates (Count = 24)
vt 0.03448276 0.3
vt 0.05172414 0.3
vt 0.05172414 0.35
vt 0.03448276 0.35
vt 0.06896552 0.3
vt 0.06896552 0.35
vt 0.03448276 0.25
vt 0.05172414 0.25
vt 0.06896552 0.25
vt 0.03448276 0.2
vt 0.05172414 0.2
vt 0.06896552 0.2
vt 0.03448276 0.15
vt 0.05172414 0.15
vt 0.06896552 0.15
vt 0.03448276 0.1
vt 0.05172414 0.1
vt 0.06896552 0.1
vt 0.362069 0.6
vt 0.3793103 0.6
vt 0.3793103 0.65
vt 0.362069 0.65
vt 0.362069 0.55
vt 0.3793103 0.55

# Normal
vn 0 0 -1

# Mesh description
g MapaT1_mesh_0006

# Faces
f 1/1/1 2/2/1 3/3/1 4/4/1
f 5/2/1 6/5/1 7/6/1 8/3/1
f 9/7/1 10/8/1 11/2/1 12/1/1
f 13/8/1 14/9/1 15/5/1 16/2/1
f 17/10/1 18/11/1 19/8/1 20/7/1
f 21/11/1 22/12/1 23/9/1 24/8/1
f 25/13/1 26/14/1 27/11/1 28/10/1
f 29/14/1 30/15/1 31/12/1 32/11/1
f 33/16/1 34/17/1 35/14/1 36/13/1
f 37/17/1 38/18/1 39/15/1 40/14/1
f 41/19/1 42/20/1 43/21/1 44/22/1
f 45/23/1 46/24/1 47/20/1 48/19/1

