# Tiled2Unity generated file. Do not modify by hand.
# Wavefront file for 'MapaT1_mesh_0008.obj'

# Vertices (Count = 156)
v 0 -1.6 0
v -1.6 -1.6 0
v -1.6 0 0
v 0 0 0
v -1.6 -1.6 0
v -3.2 -1.6 0
v -3.2 0 0
v -1.6 0 0
v -3.2 -1.6 0
v -4.8 -1.6 0
v -4.8 0 0
v -3.2 0 0
v -4.8 -1.6 0
v -6.4 -1.6 0
v -6.4 0 0
v -4.8 0 0
v -6.4 -1.6 0
v -8 -1.6 0
v -8 0 0
v -6.4 0 0
v -8 -1.6 0
v -9.6 -1.6 0
v -9.6 0 0
v -8 0 0
v -14.4 -1.6 0
v -16 -1.6 0
v -16 0 0
v -14.4 0 0
v -16 -1.6 0
v -17.6 -1.6 0
v -17.6 0 0
v -16 0 0
v -17.6 -1.6 0
v -19.2 -1.6 0
v -19.2 0 0
v -17.6 0 0
v -19.2 -1.6 0
v -20.8 -1.6 0
v -20.8 0 0
v -19.2 0 0
v -20.8 -1.6 0
v -22.4 -1.6 0
v -22.4 0 0
v -20.8 0 0
v -22.4 -1.6 0
v -24 -1.6 0
v -24 0 0
v -22.4 0 0
v -24 -1.6 0
v -25.6 -1.6 0
v -25.6 0 0
v -24 0 0
v 0 -3.2 0
v -1.6 -3.2 0
v -1.6 -1.6 0
v 0 -1.6 0
v -1.6 -3.2 0
v -3.2 -3.2 0
v -3.2 -1.6 0
v -1.6 -1.6 0
v -3.2 -3.2 0
v -4.8 -3.2 0
v -4.8 -1.6 0
v -3.2 -1.6 0
v -4.8 -3.2 0
v -6.4 -3.2 0
v -6.4 -1.6 0
v -4.8 -1.6 0
v -6.4 -3.2 0
v -8 -3.2 0
v -8 -1.6 0
v -6.4 -1.6 0
v -8 -3.2 0
v -9.6 -3.2 0
v -9.6 -1.6 0
v -8 -1.6 0
v -14.4 -3.2 0
v -16 -3.2 0
v -16 -1.6 0
v -14.4 -1.6 0
v -16 -3.2 0
v -17.6 -3.2 0
v -17.6 -1.6 0
v -16 -1.6 0
v -17.6 -3.2 0
v -19.2 -3.2 0
v -19.2 -1.6 0
v -17.6 -1.6 0
v -19.2 -3.2 0
v -20.8 -3.2 0
v -20.8 -1.6 0
v -19.2 -1.6 0
v -20.8 -3.2 0
v -22.4 -3.2 0
v -22.4 -1.6 0
v -20.8 -1.6 0
v -22.4 -3.2 0
v -24 -3.2 0
v -24 -1.6 0
v -22.4 -1.6 0
v -24 -3.2 0
v -25.6 -3.2 0
v -25.6 -1.6 0
v -24 -1.6 0
v 0 -4.8 0
v -1.6 -4.8 0
v -1.6 -3.2 0
v 0 -3.2 0
v -1.6 -4.8 0
v -3.2 -4.8 0
v -3.2 -3.2 0
v -1.6 -3.2 0
v -3.2 -4.8 0
v -4.8 -4.8 0
v -4.8 -3.2 0
v -3.2 -3.2 0
v -4.8 -4.8 0
v -6.4 -4.8 0
v -6.4 -3.2 0
v -4.8 -3.2 0
v -6.4 -4.8 0
v -8 -4.8 0
v -8 -3.2 0
v -6.4 -3.2 0
v -8 -4.8 0
v -9.6 -4.8 0
v -9.6 -3.2 0
v -8 -3.2 0
v -14.4 -4.8 0
v -16 -4.8 0
v -16 -3.2 0
v -14.4 -3.2 0
v -16 -4.8 0
v -17.6 -4.8 0
v -17.6 -3.2 0
v -16 -3.2 0
v -17.6 -4.8 0
v -19.2 -4.8 0
v -19.2 -3.2 0
v -17.6 -3.2 0
v -19.2 -4.8 0
v -20.8 -4.8 0
v -20.8 -3.2 0
v -19.2 -3.2 0
v -20.8 -4.8 0
v -22.4 -4.8 0
v -22.4 -3.2 0
v -20.8 -3.2 0
v -22.4 -4.8 0
v -24 -4.8 0
v -24 -3.2 0
v -22.4 -3.2 0
v -24 -4.8 0
v -25.6 -4.8 0
v -25.6 -3.2 0
v -24 -3.2 0

# Texture cooridinates (Count = 32)
vt 0.05172414 0.8
vt 0.06896552 0.8
vt 0.06896552 0.85
vt 0.05172414 0.85
vt 0.0862069 0.8
vt 0.0862069 0.85
vt 0.1034483 0.8
vt 0.1034483 0.85
vt 0.1206897 0.8
vt 0.1206897 0.85
vt 0.137931 0.8
vt 0.137931 0.85
vt 0.1551724 0.8
vt 0.1551724 0.85
vt 0.03448276 0.8
vt 0.03448276 0.85
vt 0.05172414 0.75
vt 0.06896552 0.75
vt 0.0862069 0.75
vt 0.1034483 0.75
vt 0.1206897 0.75
vt 0.137931 0.75
vt 0.1551724 0.75
vt 0.03448276 0.75
vt 0.05172414 0.7
vt 0.06896552 0.7
vt 0.0862069 0.7
vt 0.1034483 0.7
vt 0.1206897 0.7
vt 0.137931 0.7
vt 0.1551724 0.7
vt 0.03448276 0.7

# Normal
vn 0 0 -1

# Mesh description
g MapaT1_mesh_0008

# Faces
f 1/1/1 2/2/1 3/3/1 4/4/1
f 5/2/1 6/5/1 7/6/1 8/3/1
f 9/5/1 10/7/1 11/8/1 12/6/1
f 13/7/1 14/9/1 15/10/1 16/8/1
f 17/9/1 18/11/1 19/12/1 20/10/1
f 21/11/1 22/13/1 23/14/1 24/12/1
f 25/15/1 26/1/1 27/4/1 28/16/1
f 29/1/1 30/2/1 31/3/1 32/4/1
f 33/2/1 34/5/1 35/6/1 36/3/1
f 37/5/1 38/7/1 39/8/1 40/6/1
f 41/7/1 42/9/1 43/10/1 44/8/1
f 45/9/1 46/11/1 47/12/1 48/10/1
f 49/11/1 50/13/1 51/14/1 52/12/1
f 53/17/1 54/18/1 55/2/1 56/1/1
f 57/18/1 58/19/1 59/5/1 60/2/1
f 61/19/1 62/20/1 63/7/1 64/5/1
f 65/20/1 66/21/1 67/9/1 68/7/1
f 69/21/1 70/22/1 71/11/1 72/9/1
f 73/22/1 74/23/1 75/13/1 76/11/1
f 77/24/1 78/17/1 79/1/1 80/15/1
f 81/17/1 82/18/1 83/2/1 84/1/1
f 85/18/1 86/19/1 87/5/1 88/2/1
f 89/19/1 90/20/1 91/7/1 92/5/1
f 93/20/1 94/21/1 95/9/1 96/7/1
f 97/21/1 98/22/1 99/11/1 100/9/1
f 101/22/1 102/23/1 103/13/1 104/11/1
f 105/25/1 106/26/1 107/18/1 108/17/1
f 109/26/1 110/27/1 111/19/1 112/18/1
f 113/27/1 114/28/1 115/20/1 116/19/1
f 117/28/1 118/29/1 119/21/1 120/20/1
f 121/29/1 122/30/1 123/22/1 124/21/1
f 125/30/1 126/31/1 127/23/1 128/22/1
f 129/32/1 130/25/1 131/17/1 132/24/1
f 133/25/1 134/26/1 135/18/1 136/17/1
f 137/26/1 138/27/1 139/19/1 140/18/1
f 141/27/1 142/28/1 143/20/1 144/19/1
f 145/28/1 146/29/1 147/21/1 148/20/1
f 149/29/1 150/30/1 151/22/1 152/21/1
f 153/30/1 154/31/1 155/23/1 156/22/1

