# Tiled2Unity generated file. Do not modify by hand.
# Wavefront file for 'MapaT1_mesh_0002.obj'

# Vertices (Count = 112)
v 0 -24 0
v -1.6 -24 0
v -1.6 -22.4 0
v 0 -22.4 0
v -1.6 -24 0
v -3.2 -24 0
v -3.2 -22.4 0
v -1.6 -22.4 0
v -3.2 -24 0
v -4.8 -24 0
v -4.8 -22.4 0
v -3.2 -22.4 0
v -4.8 -24 0
v -6.4 -24 0
v -6.4 -22.4 0
v -4.8 -22.4 0
v -6.4 -24 0
v -8 -24 0
v -8 -22.4 0
v -6.4 -22.4 0
v -8 -24 0
v -9.6 -24 0
v -9.6 -22.4 0
v -8 -22.4 0
v -9.6 -24 0
v -11.2 -24 0
v -11.2 -22.4 0
v -9.6 -22.4 0
v -11.2 -24 0
v -12.8 -24 0
v -12.8 -22.4 0
v -11.2 -22.4 0
v -12.8 -24 0
v -14.4 -24 0
v -14.4 -22.4 0
v -12.8 -22.4 0
v -14.4 -24 0
v -16 -24 0
v -16 -22.4 0
v -14.4 -22.4 0
v -16 -24 0
v -17.6 -24 0
v -17.6 -22.4 0
v -16 -22.4 0
v -17.6 -24 0
v -19.2 -24 0
v -19.2 -22.4 0
v -17.6 -22.4 0
v -19.2 -24 0
v -20.8 -24 0
v -20.8 -22.4 0
v -19.2 -22.4 0
v -24 -24 0
v -25.6 -24 0
v -25.6 -22.4 0
v -24 -22.4 0
v 0 -25.6 0
v -1.6 -25.6 0
v -1.6 -24 0
v 0 -24 0
v -1.6 -25.6 0
v -3.2 -25.6 0
v -3.2 -24 0
v -1.6 -24 0
v -3.2 -25.6 0
v -4.8 -25.6 0
v -4.8 -24 0
v -3.2 -24 0
v -4.8 -25.6 0
v -6.4 -25.6 0
v -6.4 -24 0
v -4.8 -24 0
v -6.4 -25.6 0
v -8 -25.6 0
v -8 -24 0
v -6.4 -24 0
v -8 -25.6 0
v -9.6 -25.6 0
v -9.6 -24 0
v -8 -24 0
v -9.6 -25.6 0
v -11.2 -25.6 0
v -11.2 -24 0
v -9.6 -24 0
v -11.2 -25.6 0
v -12.8 -25.6 0
v -12.8 -24 0
v -11.2 -24 0
v -12.8 -25.6 0
v -14.4 -25.6 0
v -14.4 -24 0
v -12.8 -24 0
v -14.4 -25.6 0
v -16 -25.6 0
v -16 -24 0
v -14.4 -24 0
v -16 -25.6 0
v -17.6 -25.6 0
v -17.6 -24 0
v -16 -24 0
v -17.6 -25.6 0
v -19.2 -25.6 0
v -19.2 -24 0
v -17.6 -24 0
v -19.2 -25.6 0
v -20.8 -25.6 0
v -20.8 -24 0
v -19.2 -24 0
v -24 -25.6 0
v -25.6 -25.6 0
v -25.6 -24 0
v -24 -24 0

# Texture cooridinates (Count = 45)
vt 0.06896552 0.4
vt 0.0862069 0.4
vt 0.0862069 0.45
vt 0.06896552 0.45
vt 0.1034483 0.4
vt 0.1034483 0.45
vt 0.1206897 0.4
vt 0.1206897 0.45
vt 0.137931 0.4
vt 0.137931 0.45
vt 0.2068966 0.4
vt 0.2241379 0.4
vt 0.2241379 0.45
vt 0.2068966 0.45
vt 0.2413793 0.4
vt 0.2413793 0.45
vt 0.2586207 0.4
vt 0.2586207 0.45
vt 0.5517241 0.4
vt 0.5689655 0.4
vt 0.5689655 0.45
vt 0.5517241 0.45
vt 0.5862069 0.4
vt 0.5862069 0.45
vt 0.6034483 0.4
vt 0.6034483 0.45
vt 0.03448276 0.9
vt 0.05172414 0.9
vt 0.05172414 0.95
vt 0.03448276 0.95
vt 0.06896552 0.35
vt 0.0862069 0.35
vt 0.1034483 0.35
vt 0.1206897 0.35
vt 0.137931 0.35
vt 0.2068966 0.35
vt 0.2241379 0.35
vt 0.2413793 0.35
vt 0.2586207 0.35
vt 0.5517241 0.35
vt 0.5689655 0.35
vt 0.5862069 0.35
vt 0.6034483 0.35
vt 0.03448276 0.85
vt 0.05172414 0.85

# Normal
vn 0 0 -1

# Mesh description
g MapaT1_mesh_0002

# Faces
f 1/1/1 2/2/1 3/3/1 4/4/1
f 5/2/1 6/5/1 7/6/1 8/3/1
f 9/5/1 10/7/1 11/8/1 12/6/1
f 13/7/1 14/9/1 15/10/1 16/8/1
f 17/1/1 18/2/1 19/3/1 20/4/1
f 21/2/1 22/5/1 23/6/1 24/3/1
f 25/5/1 26/7/1 27/8/1 28/6/1
f 29/11/1 30/12/1 31/13/1 32/14/1
f 33/12/1 34/15/1 35/16/1 36/13/1
f 37/15/1 38/17/1 39/18/1 40/16/1
f 41/19/1 42/20/1 43/21/1 44/22/1
f 45/20/1 46/23/1 47/24/1 48/21/1
f 49/23/1 50/25/1 51/26/1 52/24/1
f 53/27/1 54/28/1 55/29/1 56/30/1
f 57/31/1 58/32/1 59/2/1 60/1/1
f 61/32/1 62/33/1 63/5/1 64/2/1
f 65/33/1 66/34/1 67/7/1 68/5/1
f 69/34/1 70/35/1 71/9/1 72/7/1
f 73/34/1 74/35/1 75/9/1 76/7/1
f 77/32/1 78/33/1 79/5/1 80/2/1
f 81/33/1 82/34/1 83/7/1 84/5/1
f 85/36/1 86/37/1 87/12/1 88/11/1
f 89/37/1 90/38/1 91/15/1 92/12/1
f 93/38/1 94/39/1 95/17/1 96/15/1
f 97/40/1 98/41/1 99/20/1 100/19/1
f 101/41/1 102/42/1 103/23/1 104/20/1
f 105/42/1 106/43/1 107/25/1 108/23/1
f 109/44/1 110/45/1 111/28/1 112/27/1

