# Tiled2Unity generated file. Do not modify by hand.
# Wavefront file for 'MapaT1_mesh_0001.obj'

# Vertices (Count = 16)
v -22.4 -24 0
v -24 -24 0
v -24 -22.4 0
v -22.4 -22.4 0
v -24 -24 0
v -25.6 -24 0
v -25.6 -22.4 0
v -24 -22.4 0
v -22.4 -25.6 0
v -24 -25.6 0
v -24 -24 0
v -22.4 -24 0
v -24 -25.6 0
v -25.6 -25.6 0
v -25.6 -24 0
v -24 -24 0

# Texture cooridinates (Count = 9)
vt 0.03448276 0.4
vt 0.05172414 0.4
vt 0.05172414 0.45
vt 0.03448276 0.45
vt 0.06896552 0.4
vt 0.06896552 0.45
vt 0.03448276 0.35
vt 0.05172414 0.35
vt 0.06896552 0.35

# Normal
vn 0 0 -1

# Mesh description
g MapaT1_mesh_0001

# Faces
f 1/1/1 2/2/1 3/3/1 4/4/1
f 5/2/1 6/5/1 7/6/1 8/3/1
f 9/7/1 10/8/1 11/2/1 12/1/1
f 13/8/1 14/9/1 15/5/1 16/2/1

