# Tiled2Unity generated file. Do not modify by hand.
# Wavefront file for 'MapaT1_mesh_0005.obj'

# Vertices (Count = 120)
v 0 -24 0
v -1.6 -24 0
v -1.6 -22.4 0
v 0 -22.4 0
v -1.6 -24 0
v -3.2 -24 0
v -3.2 -22.4 0
v -1.6 -22.4 0
v -3.2 -24 0
v -4.8 -24 0
v -4.8 -22.4 0
v -3.2 -22.4 0
v -4.8 -24 0
v -6.4 -24 0
v -6.4 -22.4 0
v -4.8 -22.4 0
v -6.4 -24 0
v -8 -24 0
v -8 -22.4 0
v -6.4 -22.4 0
v -8 -24 0
v -9.6 -24 0
v -9.6 -22.4 0
v -8 -22.4 0
v -9.6 -24 0
v -11.2 -24 0
v -11.2 -22.4 0
v -9.6 -22.4 0
v -11.2 -24 0
v -12.8 -24 0
v -12.8 -22.4 0
v -11.2 -22.4 0
v -12.8 -24 0
v -14.4 -24 0
v -14.4 -22.4 0
v -12.8 -22.4 0
v -14.4 -24 0
v -16 -24 0
v -16 -22.4 0
v -14.4 -22.4 0
v -16 -24 0
v -17.6 -24 0
v -17.6 -22.4 0
v -16 -22.4 0
v -17.6 -24 0
v -19.2 -24 0
v -19.2 -22.4 0
v -17.6 -22.4 0
v -19.2 -24 0
v -20.8 -24 0
v -20.8 -22.4 0
v -19.2 -22.4 0
v -20.8 -24 0
v -22.4 -24 0
v -22.4 -22.4 0
v -20.8 -22.4 0
v -22.4 -24 0
v -24 -24 0
v -24 -22.4 0
v -22.4 -22.4 0
v 0 -25.6 0
v -1.6 -25.6 0
v -1.6 -24 0
v 0 -24 0
v -1.6 -25.6 0
v -3.2 -25.6 0
v -3.2 -24 0
v -1.6 -24 0
v -3.2 -25.6 0
v -4.8 -25.6 0
v -4.8 -24 0
v -3.2 -24 0
v -4.8 -25.6 0
v -6.4 -25.6 0
v -6.4 -24 0
v -4.8 -24 0
v -6.4 -25.6 0
v -8 -25.6 0
v -8 -24 0
v -6.4 -24 0
v -8 -25.6 0
v -9.6 -25.6 0
v -9.6 -24 0
v -8 -24 0
v -9.6 -25.6 0
v -11.2 -25.6 0
v -11.2 -24 0
v -9.6 -24 0
v -11.2 -25.6 0
v -12.8 -25.6 0
v -12.8 -24 0
v -11.2 -24 0
v -12.8 -25.6 0
v -14.4 -25.6 0
v -14.4 -24 0
v -12.8 -24 0
v -14.4 -25.6 0
v -16 -25.6 0
v -16 -24 0
v -14.4 -24 0
v -16 -25.6 0
v -17.6 -25.6 0
v -17.6 -24 0
v -16 -24 0
v -17.6 -25.6 0
v -19.2 -25.6 0
v -19.2 -24 0
v -17.6 -24 0
v -19.2 -25.6 0
v -20.8 -25.6 0
v -20.8 -24 0
v -19.2 -24 0
v -20.8 -25.6 0
v -22.4 -25.6 0
v -22.4 -24 0
v -20.8 -24 0
v -22.4 -25.6 0
v -24 -25.6 0
v -24 -24 0
v -22.4 -24 0

# Texture cooridinates (Count = 45)
vt 0.03448276 0.4
vt 0.05172414 0.4
vt 0.05172414 0.45
vt 0.03448276 0.45
vt 0.06896552 0.4
vt 0.06896552 0.45
vt 0.0862069 0.4
vt 0.0862069 0.45
vt 0.1034483 0.4
vt 0.1034483 0.45
vt 0.1206897 0.4
vt 0.1206897 0.45
vt 0.137931 0.4
vt 0.137931 0.45
vt 0.2068966 0.4
vt 0.2241379 0.4
vt 0.2241379 0.45
vt 0.2068966 0.45
vt 0.2413793 0.4
vt 0.2413793 0.45
vt 0.2586207 0.4
vt 0.2586207 0.45
vt 0.5517241 0.4
vt 0.5689655 0.4
vt 0.5689655 0.45
vt 0.5517241 0.45
vt 0.5862069 0.4
vt 0.5862069 0.45
vt 0.6034483 0.4
vt 0.6034483 0.45
vt 0.03448276 0.35
vt 0.05172414 0.35
vt 0.06896552 0.35
vt 0.0862069 0.35
vt 0.1034483 0.35
vt 0.1206897 0.35
vt 0.137931 0.35
vt 0.2068966 0.35
vt 0.2241379 0.35
vt 0.2413793 0.35
vt 0.2586207 0.35
vt 0.5517241 0.35
vt 0.5689655 0.35
vt 0.5862069 0.35
vt 0.6034483 0.35

# Normal
vn 0 0 -1

# Mesh description
g MapaT1_mesh_0005

# Faces
f 1/1/1 2/2/1 3/3/1 4/4/1
f 5/2/1 6/5/1 7/6/1 8/3/1
f 9/5/1 10/7/1 11/8/1 12/6/1
f 13/7/1 14/9/1 15/10/1 16/8/1
f 17/9/1 18/11/1 19/12/1 20/10/1
f 21/11/1 22/13/1 23/14/1 24/12/1
f 25/5/1 26/7/1 27/8/1 28/6/1
f 29/7/1 30/9/1 31/10/1 32/8/1
f 33/9/1 34/11/1 35/12/1 36/10/1
f 37/15/1 38/16/1 39/17/1 40/18/1
f 41/16/1 42/19/1 43/20/1 44/17/1
f 45/19/1 46/21/1 47/22/1 48/20/1
f 49/23/1 50/24/1 51/25/1 52/26/1
f 53/24/1 54/27/1 55/28/1 56/25/1
f 57/27/1 58/29/1 59/30/1 60/28/1
f 61/31/1 62/32/1 63/2/1 64/1/1
f 65/32/1 66/33/1 67/5/1 68/2/1
f 69/33/1 70/34/1 71/7/1 72/5/1
f 73/34/1 74/35/1 75/9/1 76/7/1
f 77/35/1 78/36/1 79/11/1 80/9/1
f 81/36/1 82/37/1 83/13/1 84/11/1
f 85/36/1 86/37/1 87/13/1 88/11/1
f 89/34/1 90/35/1 91/9/1 92/7/1
f 93/35/1 94/36/1 95/11/1 96/9/1
f 97/38/1 98/39/1 99/16/1 100/15/1
f 101/39/1 102/40/1 103/19/1 104/16/1
f 105/40/1 106/41/1 107/21/1 108/19/1
f 109/42/1 110/43/1 111/24/1 112/23/1
f 113/43/1 114/44/1 115/27/1 116/24/1
f 117/44/1 118/45/1 119/29/1 120/27/1

