# Tiled2Unity generated file. Do not modify by hand.
# Wavefront file for 'MapaT1_mesh_0007.obj'

# Vertices (Count = 368)
v 0 -1.6 0
v -1.6 -1.6 0
v -1.6 0 0
v 0 0 0
v -1.6 -1.6 0
v -3.2 -1.6 0
v -3.2 0 0
v -1.6 0 0
v -3.2 -1.6 0
v -4.8 -1.6 0
v -4.8 0 0
v -3.2 0 0
v -4.8 -1.6 0
v -6.4 -1.6 0
v -6.4 0 0
v -4.8 0 0
v -6.4 -1.6 0
v -8 -1.6 0
v -8 0 0
v -6.4 0 0
v -8 -1.6 0
v -9.6 -1.6 0
v -9.6 0 0
v -8 0 0
v -9.6 -1.6 0
v -11.2 -1.6 0
v -11.2 0 0
v -9.6 0 0
v -11.2 -1.6 0
v -12.8 -1.6 0
v -12.8 0 0
v -11.2 0 0
v -12.8 -1.6 0
v -14.4 -1.6 0
v -14.4 0 0
v -12.8 0 0
v -14.4 -1.6 0
v -16 -1.6 0
v -16 0 0
v -14.4 0 0
v -16 -1.6 0
v -17.6 -1.6 0
v -17.6 0 0
v -16 0 0
v -17.6 -1.6 0
v -19.2 -1.6 0
v -19.2 0 0
v -17.6 0 0
v -19.2 -1.6 0
v -20.8 -1.6 0
v -20.8 0 0
v -19.2 0 0
v -24 -1.6 0
v -25.6 -1.6 0
v -25.6 0 0
v -24 0 0
v 0 -3.2 0
v -1.6 -3.2 0
v -1.6 -1.6 0
v 0 -1.6 0
v -1.6 -3.2 0
v -3.2 -3.2 0
v -3.2 -1.6 0
v -1.6 -1.6 0
v -3.2 -3.2 0
v -4.8 -3.2 0
v -4.8 -1.6 0
v -3.2 -1.6 0
v -4.8 -3.2 0
v -6.4 -3.2 0
v -6.4 -1.6 0
v -4.8 -1.6 0
v -6.4 -3.2 0
v -8 -3.2 0
v -8 -1.6 0
v -6.4 -1.6 0
v -8 -3.2 0
v -9.6 -3.2 0
v -9.6 -1.6 0
v -8 -1.6 0
v -9.6 -3.2 0
v -11.2 -3.2 0
v -11.2 -1.6 0
v -9.6 -1.6 0
v -11.2 -3.2 0
v -12.8 -3.2 0
v -12.8 -1.6 0
v -11.2 -1.6 0
v -12.8 -3.2 0
v -14.4 -3.2 0
v -14.4 -1.6 0
v -12.8 -1.6 0
v -14.4 -3.2 0
v -16 -3.2 0
v -16 -1.6 0
v -14.4 -1.6 0
v -16 -3.2 0
v -17.6 -3.2 0
v -17.6 -1.6 0
v -16 -1.6 0
v -17.6 -3.2 0
v -19.2 -3.2 0
v -19.2 -1.6 0
v -17.6 -1.6 0
v -19.2 -3.2 0
v -20.8 -3.2 0
v -20.8 -1.6 0
v -19.2 -1.6 0
v -24 -3.2 0
v -25.6 -3.2 0
v -25.6 -1.6 0
v -24 -1.6 0
v 0 -4.8 0
v -1.6 -4.8 0
v -1.6 -3.2 0
v 0 -3.2 0
v -1.6 -4.8 0
v -3.2 -4.8 0
v -3.2 -3.2 0
v -1.6 -3.2 0
v -3.2 -4.8 0
v -4.8 -4.8 0
v -4.8 -3.2 0
v -3.2 -3.2 0
v -4.8 -4.8 0
v -6.4 -4.8 0
v -6.4 -3.2 0
v -4.8 -3.2 0
v -6.4 -4.8 0
v -8 -4.8 0
v -8 -3.2 0
v -6.4 -3.2 0
v -8 -4.8 0
v -9.6 -4.8 0
v -9.6 -3.2 0
v -8 -3.2 0
v -9.6 -4.8 0
v -11.2 -4.8 0
v -11.2 -3.2 0
v -9.6 -3.2 0
v -11.2 -4.8 0
v -12.8 -4.8 0
v -12.8 -3.2 0
v -11.2 -3.2 0
v -12.8 -4.8 0
v -14.4 -4.8 0
v -14.4 -3.2 0
v -12.8 -3.2 0
v -14.4 -4.8 0
v -16 -4.8 0
v -16 -3.2 0
v -14.4 -3.2 0
v -16 -4.8 0
v -17.6 -4.8 0
v -17.6 -3.2 0
v -16 -3.2 0
v -17.6 -4.8 0
v -19.2 -4.8 0
v -19.2 -3.2 0
v -17.6 -3.2 0
v -19.2 -4.8 0
v -20.8 -4.8 0
v -20.8 -3.2 0
v -19.2 -3.2 0
v -24 -4.8 0
v -25.6 -4.8 0
v -25.6 -3.2 0
v -24 -3.2 0
v 0 -6.4 0
v -1.6 -6.4 0
v -1.6 -4.8 0
v 0 -4.8 0
v -1.6 -6.4 0
v -3.2 -6.4 0
v -3.2 -4.8 0
v -1.6 -4.8 0
v -3.2 -6.4 0
v -4.8 -6.4 0
v -4.8 -4.8 0
v -3.2 -4.8 0
v -4.8 -6.4 0
v -6.4 -6.4 0
v -6.4 -4.8 0
v -4.8 -4.8 0
v -6.4 -6.4 0
v -8 -6.4 0
v -8 -4.8 0
v -6.4 -4.8 0
v -8 -6.4 0
v -9.6 -6.4 0
v -9.6 -4.8 0
v -8 -4.8 0
v -9.6 -6.4 0
v -11.2 -6.4 0
v -11.2 -4.8 0
v -9.6 -4.8 0
v -11.2 -6.4 0
v -12.8 -6.4 0
v -12.8 -4.8 0
v -11.2 -4.8 0
v -12.8 -6.4 0
v -14.4 -6.4 0
v -14.4 -4.8 0
v -12.8 -4.8 0
v -14.4 -6.4 0
v -16 -6.4 0
v -16 -4.8 0
v -14.4 -4.8 0
v -16 -6.4 0
v -17.6 -6.4 0
v -17.6 -4.8 0
v -16 -4.8 0
v -17.6 -6.4 0
v -19.2 -6.4 0
v -19.2 -4.8 0
v -17.6 -4.8 0
v -19.2 -6.4 0
v -20.8 -6.4 0
v -20.8 -4.8 0
v -19.2 -4.8 0
v 0 -8 0
v -1.6 -8 0
v -1.6 -6.4 0
v 0 -6.4 0
v -1.6 -8 0
v -3.2 -8 0
v -3.2 -6.4 0
v -1.6 -6.4 0
v -3.2 -8 0
v -4.8 -8 0
v -4.8 -6.4 0
v -3.2 -6.4 0
v -4.8 -8 0
v -6.4 -8 0
v -6.4 -6.4 0
v -4.8 -6.4 0
v -6.4 -8 0
v -8 -8 0
v -8 -6.4 0
v -6.4 -6.4 0
v -8 -8 0
v -9.6 -8 0
v -9.6 -6.4 0
v -8 -6.4 0
v -9.6 -8 0
v -11.2 -8 0
v -11.2 -6.4 0
v -9.6 -6.4 0
v -11.2 -8 0
v -12.8 -8 0
v -12.8 -6.4 0
v -11.2 -6.4 0
v -12.8 -8 0
v -14.4 -8 0
v -14.4 -6.4 0
v -12.8 -6.4 0
v -14.4 -8 0
v -16 -8 0
v -16 -6.4 0
v -14.4 -6.4 0
v -16 -8 0
v -17.6 -8 0
v -17.6 -6.4 0
v -16 -6.4 0
v -17.6 -8 0
v -19.2 -8 0
v -19.2 -6.4 0
v -17.6 -6.4 0
v -19.2 -8 0
v -20.8 -8 0
v -20.8 -6.4 0
v -19.2 -6.4 0
v 0 -9.6 0
v -1.6 -9.6 0
v -1.6 -8 0
v 0 -8 0
v -1.6 -9.6 0
v -3.2 -9.6 0
v -3.2 -8 0
v -1.6 -8 0
v -3.2 -9.6 0
v -4.8 -9.6 0
v -4.8 -8 0
v -3.2 -8 0
v -4.8 -9.6 0
v -6.4 -9.6 0
v -6.4 -8 0
v -4.8 -8 0
v -6.4 -9.6 0
v -8 -9.6 0
v -8 -8 0
v -6.4 -8 0
v -8 -9.6 0
v -9.6 -9.6 0
v -9.6 -8 0
v -8 -8 0
v -9.6 -9.6 0
v -11.2 -9.6 0
v -11.2 -8 0
v -9.6 -8 0
v -11.2 -9.6 0
v -12.8 -9.6 0
v -12.8 -8 0
v -11.2 -8 0
v -12.8 -9.6 0
v -14.4 -9.6 0
v -14.4 -8 0
v -12.8 -8 0
v -14.4 -9.6 0
v -16 -9.6 0
v -16 -8 0
v -14.4 -8 0
v -16 -9.6 0
v -17.6 -9.6 0
v -17.6 -8 0
v -16 -8 0
v -17.6 -9.6 0
v -19.2 -9.6 0
v -19.2 -8 0
v -17.6 -8 0
v 0 -11.2 0
v -1.6 -11.2 0
v -1.6 -9.6 0
v 0 -9.6 0
v -1.6 -11.2 0
v -3.2 -11.2 0
v -3.2 -9.6 0
v -1.6 -9.6 0
v -3.2 -11.2 0
v -4.8 -11.2 0
v -4.8 -9.6 0
v -3.2 -9.6 0
v -4.8 -11.2 0
v -6.4 -11.2 0
v -6.4 -9.6 0
v -4.8 -9.6 0
v -6.4 -11.2 0
v -8 -11.2 0
v -8 -9.6 0
v -6.4 -9.6 0
v -8 -11.2 0
v -9.6 -11.2 0
v -9.6 -9.6 0
v -8 -9.6 0
v -9.6 -11.2 0
v -11.2 -11.2 0
v -11.2 -9.6 0
v -9.6 -9.6 0
v -11.2 -11.2 0
v -12.8 -11.2 0
v -12.8 -9.6 0
v -11.2 -9.6 0
v -12.8 -11.2 0
v -14.4 -11.2 0
v -14.4 -9.6 0
v -12.8 -9.6 0
v -14.4 -11.2 0
v -16 -11.2 0
v -16 -9.6 0
v -14.4 -9.6 0
v -16 -11.2 0
v -17.6 -11.2 0
v -17.6 -9.6 0
v -16 -9.6 0
v -17.6 -11.2 0
v -19.2 -11.2 0
v -19.2 -9.6 0
v -17.6 -9.6 0

# Texture cooridinates (Count = 93)
vt 0.06896552 0.3
vt 0.0862069 0.3
vt 0.0862069 0.35
vt 0.06896552 0.35
vt 0.1034483 0.3
vt 0.1034483 0.35
vt 0.1206897 0.3
vt 0.1206897 0.35
vt 0.137931 0.3
vt 0.137931 0.35
vt 0.2068966 0.3
vt 0.2241379 0.3
vt 0.2241379 0.35
vt 0.2068966 0.35
vt 0.2413793 0.3
vt 0.2413793 0.35
vt 0.2586207 0.3
vt 0.2586207 0.35
vt 0.5517241 0.3
vt 0.5689655 0.3
vt 0.5689655 0.35
vt 0.5517241 0.35
vt 0.5862069 0.3
vt 0.5862069 0.35
vt 0.6034483 0.3
vt 0.6034483 0.35
vt 0.03448276 0.8
vt 0.05172414 0.8
vt 0.05172414 0.85
vt 0.03448276 0.85
vt 0.06896552 0.25
vt 0.0862069 0.25
vt 0.1034483 0.25
vt 0.1206897 0.25
vt 0.137931 0.25
vt 0.5517241 0.25
vt 0.5689655 0.25
vt 0.5862069 0.25
vt 0.6034483 0.25
vt 0.03448276 0.75
vt 0.05172414 0.75
vt 0.06896552 0.2
vt 0.0862069 0.2
vt 0.1034483 0.2
vt 0.1206897 0.2
vt 0.137931 0.2
vt 0.5517241 0.2
vt 0.5689655 0.2
vt 0.5862069 0.2
vt 0.6034483 0.2
vt 0.03448276 0.7
vt 0.05172414 0.7
vt 0.06896552 0.15
vt 0.0862069 0.15
vt 0.1034483 0.15
vt 0.1206897 0.15
vt 0.137931 0.15
vt 0.06896552 0.1
vt 0.0862069 0.1
vt 0.1034483 0.1
vt 0.1206897 0.1
vt 0.137931 0.1
vt 0.5517241 0.15
vt 0.5689655 0.15
vt 0.5862069 0.15
vt 0.6034483 0.15
vt 0.3793103 0.6
vt 0.3965517 0.6
vt 0.3965517 0.65
vt 0.3793103 0.65
vt 0.4137931 0.6
vt 0.4137931 0.65
vt 0.4310345 0.6
vt 0.4482759 0.6
vt 0.4482759 0.65
vt 0.4310345 0.65
vt 0.4827586 0.6
vt 0.5 0.6
vt 0.5 0.65
vt 0.4827586 0.65
vt 0.4655173 0.6
vt 0.4655173 0.65
vt 0.5172414 0.6
vt 0.5172414 0.65
vt 0.3793103 0.55
vt 0.3965517 0.55
vt 0.4137931 0.55
vt 0.4310345 0.55
vt 0.4482759 0.55
vt 0.4827586 0.55
vt 0.5 0.55
vt 0.4655173 0.55
vt 0.5172414 0.55

# Normal
vn 0 0 -1

# Mesh description
g MapaT1_mesh_0007

# Faces
f 1/1/1 2/2/1 3/3/1 4/4/1
f 5/2/1 6/5/1 7/6/1 8/3/1
f 9/5/1 10/7/1 11/8/1 12/6/1
f 13/7/1 14/9/1 15/10/1 16/8/1
f 17/7/1 18/9/1 19/10/1 20/8/1
f 21/7/1 22/9/1 23/10/1 24/8/1
f 25/7/1 26/9/1 27/10/1 28/8/1
f 29/11/1 30/12/1 31/13/1 32/14/1
f 33/12/1 34/15/1 35/16/1 36/13/1
f 37/15/1 38/17/1 39/18/1 40/16/1
f 41/19/1 42/20/1 43/21/1 44/22/1
f 45/20/1 46/23/1 47/24/1 48/21/1
f 49/23/1 50/25/1 51/26/1 52/24/1
f 53/27/1 54/28/1 55/29/1 56/30/1
f 57/31/1 58/32/1 59/2/1 60/1/1
f 61/32/1 62/33/1 63/5/1 64/2/1
f 65/33/1 66/34/1 67/7/1 68/5/1
f 69/34/1 70/35/1 71/9/1 72/7/1
f 73/34/1 74/35/1 75/9/1 76/7/1
f 77/34/1 78/35/1 79/9/1 80/7/1
f 81/34/1 82/35/1 83/9/1 84/7/1
f 85/34/1 86/35/1 87/9/1 88/7/1
f 89/7/1 90/9/1 91/10/1 92/8/1
f 93/7/1 94/9/1 95/10/1 96/8/1
f 97/36/1 98/37/1 99/20/1 100/19/1
f 101/37/1 102/38/1 103/23/1 104/20/1
f 105/38/1 106/39/1 107/25/1 108/23/1
f 109/40/1 110/41/1 111/28/1 112/27/1
f 113/42/1 114/43/1 115/32/1 116/31/1
f 117/43/1 118/44/1 119/33/1 120/32/1
f 121/44/1 122/45/1 123/34/1 124/33/1
f 125/45/1 126/46/1 127/35/1 128/34/1
f 129/45/1 130/46/1 131/35/1 132/34/1
f 133/45/1 134/46/1 135/35/1 136/34/1
f 137/45/1 138/46/1 139/35/1 140/34/1
f 141/45/1 142/46/1 143/35/1 144/34/1
f 145/34/1 146/35/1 147/9/1 148/7/1
f 149/34/1 150/35/1 151/9/1 152/7/1
f 153/47/1 154/48/1 155/37/1 156/36/1
f 157/48/1 158/49/1 159/38/1 160/37/1
f 161/49/1 162/50/1 163/39/1 164/38/1
f 165/51/1 166/52/1 167/41/1 168/40/1
f 169/53/1 170/54/1 171/43/1 172/42/1
f 173/54/1 174/55/1 175/44/1 176/43/1
f 177/55/1 178/56/1 179/45/1 180/44/1
f 181/56/1 182/57/1 183/46/1 184/45/1
f 185/56/1 186/57/1 187/46/1 188/45/1
f 189/56/1 190/57/1 191/46/1 192/45/1
f 193/56/1 194/57/1 195/46/1 196/45/1
f 197/56/1 198/57/1 199/46/1 200/45/1
f 201/45/1 202/46/1 203/35/1 204/34/1
f 205/45/1 206/46/1 207/35/1 208/34/1
f 209/47/1 210/48/1 211/37/1 212/36/1
f 213/48/1 214/49/1 215/38/1 216/37/1
f 217/49/1 218/50/1 219/39/1 220/38/1
f 221/58/1 222/59/1 223/54/1 224/53/1
f 225/59/1 226/60/1 227/55/1 228/54/1
f 229/60/1 230/61/1 231/56/1 232/55/1
f 233/61/1 234/62/1 235/57/1 236/56/1
f 237/61/1 238/62/1 239/57/1 240/56/1
f 241/61/1 242/62/1 243/57/1 244/56/1
f 245/56/1 246/57/1 247/46/1 248/45/1
f 249/56/1 250/57/1 251/46/1 252/45/1
f 253/56/1 254/57/1 255/46/1 256/45/1
f 257/56/1 258/57/1 259/46/1 260/45/1
f 261/63/1 262/64/1 263/48/1 264/47/1
f 265/64/1 266/65/1 267/49/1 268/48/1
f 269/65/1 270/66/1 271/50/1 272/49/1
f 273/67/1 274/68/1 275/69/1 276/70/1
f 277/68/1 278/71/1 279/72/1 280/69/1
f 281/73/1 282/74/1 283/75/1 284/76/1
f 285/77/1 286/78/1 287/79/1 288/80/1
f 289/73/1 290/74/1 291/75/1 292/76/1
f 293/73/1 294/74/1 295/75/1 296/76/1
f 297/77/1 298/78/1 299/79/1 300/80/1
f 301/73/1 302/74/1 303/75/1 304/76/1
f 305/73/1 306/74/1 307/75/1 308/76/1
f 309/81/1 310/77/1 311/80/1 312/82/1
f 313/77/1 314/78/1 315/79/1 316/80/1
f 317/78/1 318/83/1 319/84/1 320/79/1
f 321/85/1 322/86/1 323/68/1 324/67/1
f 325/86/1 326/87/1 327/71/1 328/68/1
f 329/88/1 330/89/1 331/74/1 332/73/1
f 333/90/1 334/91/1 335/78/1 336/77/1
f 337/88/1 338/89/1 339/74/1 340/73/1
f 341/88/1 342/89/1 343/74/1 344/73/1
f 345/90/1 346/91/1 347/78/1 348/77/1
f 349/88/1 350/89/1 351/74/1 352/73/1
f 353/88/1 354/89/1 355/74/1 356/73/1
f 357/92/1 358/90/1 359/77/1 360/81/1
f 361/90/1 362/91/1 363/78/1 364/77/1
f 365/91/1 366/93/1 367/83/1 368/78/1

